<mxfile host="app.diagrams.net" modified="2020-10-10T13:09:11.237Z" agent="5.0 (Windows)" etag="QYj515VowDiqCEKrq8xr" version="13.7.7" type="github">
  <diagram id="7Y_zMdDOIW7OHCF4zXLD" name="Page-1">
    <mxGraphModel dx="2272" dy="791" grid="1" gridSize="10" guides="1" tooltips="1" connect="1" arrows="1" fold="1" page="1" pageScale="1" pageWidth="850" pageHeight="1100" math="0" shadow="0">
      <root>
        <mxCell id="0" />
        <mxCell id="1" parent="0" />
        <mxCell id="3XvH-DJk1GU3qEWTqNvq-1" value="inet" style="ellipse;shape=cloud;whiteSpace=wrap;html=1;" parent="1" vertex="1">
          <mxGeometry x="360" y="70" width="190" height="120" as="geometry" />
        </mxCell>
        <mxCell id="3XvH-DJk1GU3qEWTqNvq-2" value="&amp;nbsp;&amp;nbsp; office2&amp;nbsp;&amp;nbsp;&amp;nbsp; Router" style="whiteSpace=wrap;html=1;aspect=fixed;" parent="1" vertex="1">
          <mxGeometry x="40" y="460" width="80" height="80" as="geometry" />
        </mxCell>
        <mxCell id="3XvH-DJk1GU3qEWTqNvq-3" value="inet router" style="ellipse;whiteSpace=wrap;html=1;aspect=fixed;" parent="1" vertex="1">
          <mxGeometry x="425" y="240" width="80" height="80" as="geometry" />
        </mxCell>
        <mxCell id="3XvH-DJk1GU3qEWTqNvq-5" value="" style="endArrow=classic;html=1;" parent="1" edge="1">
          <mxGeometry width="50" height="50" relative="1" as="geometry">
            <mxPoint x="464.5" y="240" as="sourcePoint" />
            <mxPoint x="464.5" y="180" as="targetPoint" />
            <Array as="points">
              <mxPoint x="464.5" y="210" />
            </Array>
          </mxGeometry>
        </mxCell>
        <mxCell id="3XvH-DJk1GU3qEWTqNvq-6" value="" style="endArrow=none;html=1;" parent="1" edge="1">
          <mxGeometry width="50" height="50" relative="1" as="geometry">
            <mxPoint x="464.5" y="390" as="sourcePoint" />
            <mxPoint x="464.5" y="320" as="targetPoint" />
          </mxGeometry>
        </mxCell>
        <mxCell id="3XvH-DJk1GU3qEWTqNvq-7" value="" style="endArrow=none;html=1;" parent="1" edge="1">
          <mxGeometry width="50" height="50" relative="1" as="geometry">
            <mxPoint x="80" y="390" as="sourcePoint" />
            <mxPoint x="320" y="390" as="targetPoint" />
          </mxGeometry>
        </mxCell>
        <mxCell id="3XvH-DJk1GU3qEWTqNvq-8" value="" style="endArrow=none;html=1;" parent="1" edge="1">
          <mxGeometry width="50" height="50" relative="1" as="geometry">
            <mxPoint x="79.5" y="460" as="sourcePoint" />
            <mxPoint x="79.5" y="390" as="targetPoint" />
            <Array as="points">
              <mxPoint x="79.5" y="440" />
            </Array>
          </mxGeometry>
        </mxCell>
        <mxCell id="3XvH-DJk1GU3qEWTqNvq-9" value="office1&amp;nbsp; Router" style="whiteSpace=wrap;html=1;aspect=fixed;" parent="1" vertex="1">
          <mxGeometry x="680" y="450" width="80" height="80" as="geometry" />
        </mxCell>
        <mxCell id="3XvH-DJk1GU3qEWTqNvq-10" value="" style="endArrow=none;html=1;" parent="1" edge="1">
          <mxGeometry width="50" height="50" relative="1" as="geometry">
            <mxPoint x="719.5" y="450" as="sourcePoint" />
            <mxPoint x="719.5" y="390" as="targetPoint" />
          </mxGeometry>
        </mxCell>
        <mxCell id="3XvH-DJk1GU3qEWTqNvq-11" value="Central&amp;nbsp;&amp;nbsp; Office" style="whiteSpace=wrap;html=1;aspect=fixed;" parent="1" vertex="1">
          <mxGeometry x="425" y="460" width="80" height="80" as="geometry" />
        </mxCell>
        <mxCell id="3XvH-DJk1GU3qEWTqNvq-12" value="" style="endArrow=none;html=1;" parent="1" edge="1">
          <mxGeometry width="50" height="50" relative="1" as="geometry">
            <mxPoint x="464.5" y="460" as="sourcePoint" />
            <mxPoint x="465" y="390" as="targetPoint" />
          </mxGeometry>
        </mxCell>
        <mxCell id="3XvH-DJk1GU3qEWTqNvq-13" value="" style="endArrow=none;html=1;" parent="1" edge="1">
          <mxGeometry width="50" height="50" relative="1" as="geometry">
            <mxPoint x="30" y="590" as="sourcePoint" />
            <mxPoint x="80" y="540" as="targetPoint" />
            <Array as="points">
              <mxPoint x="30" y="590" />
            </Array>
          </mxGeometry>
        </mxCell>
        <mxCell id="3XvH-DJk1GU3qEWTqNvq-15" value="Server2&lt;font style=&quot;font-size: 9px&quot;&gt;: 192.168.1.2/25&lt;/font&gt;" style="whiteSpace=wrap;html=1;aspect=fixed;" parent="1" vertex="1">
          <mxGeometry x="80" y="590" width="70" height="70" as="geometry" />
        </mxCell>
        <mxCell id="3XvH-DJk1GU3qEWTqNvq-16" value="&lt;font style=&quot;font-size: 9px&quot;&gt;net21: 192.168.1.128/26&lt;/font&gt;" style="whiteSpace=wrap;html=1;aspect=fixed;" parent="1" vertex="1">
          <mxGeometry y="590" width="70" height="70" as="geometry" />
        </mxCell>
        <mxCell id="3XvH-DJk1GU3qEWTqNvq-17" value="&lt;font style=&quot;font-size: 9px&quot;&gt;net22: 192.168.1.192/26&lt;/font&gt;" style="whiteSpace=wrap;html=1;aspect=fixed;" parent="1" vertex="1">
          <mxGeometry x="160" y="590" width="70" height="70" as="geometry" />
        </mxCell>
        <mxCell id="3XvH-DJk1GU3qEWTqNvq-18" value="" style="endArrow=none;html=1;exitX=0.5;exitY=0;exitDx=0;exitDy=0;entryX=0.5;entryY=1;entryDx=0;entryDy=0;" parent="1" source="3XvH-DJk1GU3qEWTqNvq-17" target="3XvH-DJk1GU3qEWTqNvq-2" edge="1">
          <mxGeometry width="50" height="50" relative="1" as="geometry">
            <mxPoint x="100" y="605" as="sourcePoint" />
            <mxPoint x="70" y="540" as="targetPoint" />
          </mxGeometry>
        </mxCell>
        <mxCell id="3XvH-DJk1GU3qEWTqNvq-19" value="" style="endArrow=none;html=1;exitX=0.5;exitY=0;exitDx=0;exitDy=0;" parent="1" source="3XvH-DJk1GU3qEWTqNvq-15" edge="1">
          <mxGeometry width="50" height="50" relative="1" as="geometry">
            <mxPoint x="80" y="600" as="sourcePoint" />
            <mxPoint x="80" y="540" as="targetPoint" />
            <Array as="points" />
          </mxGeometry>
        </mxCell>
        <mxCell id="3XvH-DJk1GU3qEWTqNvq-20" value="" style="endArrow=none;html=1;" parent="1" edge="1">
          <mxGeometry width="50" height="50" relative="1" as="geometry">
            <mxPoint x="670" y="580" as="sourcePoint" />
            <mxPoint x="720" y="530" as="targetPoint" />
            <Array as="points">
              <mxPoint x="670" y="580" />
            </Array>
          </mxGeometry>
        </mxCell>
        <mxCell id="3XvH-DJk1GU3qEWTqNvq-21" value="&lt;div&gt;Server1 &amp;nbsp;&amp;nbsp;&amp;nbsp;&amp;nbsp;&amp;nbsp;&amp;nbsp; &lt;br&gt;&lt;/div&gt;&lt;div style=&quot;font-size: 9px&quot;&gt;192.168.2.2/26&lt;br&gt;&lt;/div&gt;" style="whiteSpace=wrap;html=1;aspect=fixed;" parent="1" vertex="1">
          <mxGeometry x="720" y="580" width="70" height="70" as="geometry" />
        </mxCell>
        <mxCell id="3XvH-DJk1GU3qEWTqNvq-22" value="" style="endArrow=none;html=1;exitX=0.5;exitY=0;exitDx=0;exitDy=0;entryX=0.5;entryY=1;entryDx=0;entryDy=0;" parent="1" edge="1">
          <mxGeometry width="50" height="50" relative="1" as="geometry">
            <mxPoint x="825" y="580" as="sourcePoint" />
            <mxPoint x="720" y="530" as="targetPoint" />
          </mxGeometry>
        </mxCell>
        <mxCell id="3XvH-DJk1GU3qEWTqNvq-23" value="" style="endArrow=none;html=1;exitX=0.5;exitY=0;exitDx=0;exitDy=0;" parent="1" source="3XvH-DJk1GU3qEWTqNvq-21" edge="1">
          <mxGeometry width="50" height="50" relative="1" as="geometry">
            <mxPoint x="720" y="590" as="sourcePoint" />
            <mxPoint x="720" y="530" as="targetPoint" />
            <Array as="points" />
          </mxGeometry>
        </mxCell>
        <mxCell id="3XvH-DJk1GU3qEWTqNvq-24" value="&lt;font style=&quot;font-size: 9px&quot;&gt;net12: 192.168.2.64/26&lt;/font&gt;" style="whiteSpace=wrap;html=1;aspect=fixed;" parent="1" vertex="1">
          <mxGeometry x="620" y="580" width="70" height="70" as="geometry" />
        </mxCell>
        <mxCell id="3XvH-DJk1GU3qEWTqNvq-25" value="&lt;font style=&quot;font-size: 9px&quot;&gt;net11: 192.168.2.128/26&lt;/font&gt;" style="whiteSpace=wrap;html=1;aspect=fixed;" parent="1" vertex="1">
          <mxGeometry x="800" y="580" width="80" height="80" as="geometry" />
        </mxCell>
        <mxCell id="3XvH-DJk1GU3qEWTqNvq-26" value="&lt;font style=&quot;font-size: 9px&quot;&gt;net13: 192.168.2.192/26&lt;/font&gt;" style="whiteSpace=wrap;html=1;aspect=fixed;" parent="1" vertex="1">
          <mxGeometry x="660" y="680" width="80" height="80" as="geometry" />
        </mxCell>
        <mxCell id="3XvH-DJk1GU3qEWTqNvq-27" value="" style="endArrow=none;html=1;exitX=0.35;exitY=0.025;exitDx=0;exitDy=0;exitPerimeter=0;" parent="1" source="3XvH-DJk1GU3qEWTqNvq-26" edge="1">
          <mxGeometry width="50" height="50" relative="1" as="geometry">
            <mxPoint x="720" y="600" as="sourcePoint" />
            <mxPoint x="720" y="530" as="targetPoint" />
            <Array as="points">
              <mxPoint x="720" y="560" />
            </Array>
          </mxGeometry>
        </mxCell>
        <mxCell id="3XvH-DJk1GU3qEWTqNvq-28" value="&lt;div align=&quot;left&quot;&gt;&lt;font style=&quot;font-size: 10px&quot;&gt;CentralServer 192.168.0.2/28 &amp;nbsp;&amp;nbsp;&lt;/font&gt;&amp;nbsp;&amp;nbsp;&amp;nbsp;&amp;nbsp;&amp;nbsp; &lt;/div&gt;" style="whiteSpace=wrap;html=1;aspect=fixed;align=left;" parent="1" vertex="1">
          <mxGeometry x="430" y="600" width="80" height="80" as="geometry" />
        </mxCell>
        <mxCell id="3XvH-DJk1GU3qEWTqNvq-29" value="&lt;font style=&quot;font-size: 9px&quot;&gt;net1: 192.168.0.32/28&lt;/font&gt;" style="whiteSpace=wrap;html=1;aspect=fixed;" parent="1" vertex="1">
          <mxGeometry x="340" y="600" width="70" height="70" as="geometry" />
        </mxCell>
        <mxCell id="3XvH-DJk1GU3qEWTqNvq-30" value="&lt;font style=&quot;font-size: 9px&quot;&gt;net2: 192.168.0.64/26&lt;/font&gt;" style="whiteSpace=wrap;html=1;aspect=fixed;" parent="1" vertex="1">
          <mxGeometry x="520" y="600" width="70" height="70" as="geometry" />
        </mxCell>
        <mxCell id="3XvH-DJk1GU3qEWTqNvq-31" value="" style="endArrow=none;html=1;entryX=0.413;entryY=1.05;entryDx=0;entryDy=0;entryPerimeter=0;" parent="1" target="3XvH-DJk1GU3qEWTqNvq-11" edge="1">
          <mxGeometry width="50" height="50" relative="1" as="geometry">
            <mxPoint x="380" y="600" as="sourcePoint" />
            <mxPoint x="430" y="550" as="targetPoint" />
            <Array as="points">
              <mxPoint x="380" y="600" />
              <mxPoint x="410" y="590" />
            </Array>
          </mxGeometry>
        </mxCell>
        <mxCell id="3XvH-DJk1GU3qEWTqNvq-32" value="" style="endArrow=none;html=1;exitX=0.5;exitY=0;exitDx=0;exitDy=0;entryX=0.5;entryY=1;entryDx=0;entryDy=0;" parent="1" source="3XvH-DJk1GU3qEWTqNvq-30" edge="1">
          <mxGeometry width="50" height="50" relative="1" as="geometry">
            <mxPoint x="565" y="590" as="sourcePoint" />
            <mxPoint x="460" y="540" as="targetPoint" />
          </mxGeometry>
        </mxCell>
        <mxCell id="3XvH-DJk1GU3qEWTqNvq-33" value="" style="endArrow=none;html=1;exitX=0.5;exitY=0;exitDx=0;exitDy=0;" parent="1" source="3XvH-DJk1GU3qEWTqNvq-28" edge="1">
          <mxGeometry width="50" height="50" relative="1" as="geometry">
            <mxPoint x="485" y="590" as="sourcePoint" />
            <mxPoint x="460" y="540" as="targetPoint" />
            <Array as="points" />
          </mxGeometry>
        </mxCell>
        <mxCell id="3XvH-DJk1GU3qEWTqNvq-36" value="10.0.2.15/24" style="whiteSpace=wrap;html=1;" parent="1" vertex="1">
          <mxGeometry x="640" y="180" width="120" height="60" as="geometry" />
        </mxCell>
        <mxCell id="3XvH-DJk1GU3qEWTqNvq-37" value="192.168.255.1/30" style="whiteSpace=wrap;html=1;" parent="1" vertex="1">
          <mxGeometry x="640" y="260" width="120" height="60" as="geometry" />
        </mxCell>
        <mxCell id="3XvH-DJk1GU3qEWTqNvq-38" value="" style="endArrow=classic;html=1;entryX=0;entryY=1;entryDx=0;entryDy=0;" parent="1" target="3XvH-DJk1GU3qEWTqNvq-37" edge="1">
          <mxGeometry width="50" height="50" relative="1" as="geometry">
            <mxPoint x="460" y="319" as="sourcePoint" />
            <mxPoint x="590" y="319" as="targetPoint" />
          </mxGeometry>
        </mxCell>
        <mxCell id="3XvH-DJk1GU3qEWTqNvq-39" value="" style="endArrow=classic;html=1;entryX=0.092;entryY=1;entryDx=0;entryDy=0;entryPerimeter=0;" parent="1" target="3XvH-DJk1GU3qEWTqNvq-36" edge="1">
          <mxGeometry width="50" height="50" relative="1" as="geometry">
            <mxPoint x="470" y="240" as="sourcePoint" />
            <mxPoint x="520" y="190" as="targetPoint" />
          </mxGeometry>
        </mxCell>
        <mxCell id="3XvH-DJk1GU3qEWTqNvq-40" value="" style="endArrow=classic;html=1;exitX=0.5;exitY=0;exitDx=0;exitDy=0;" parent="1" source="3XvH-DJk1GU3qEWTqNvq-11" edge="1">
          <mxGeometry width="50" height="50" relative="1" as="geometry">
            <mxPoint x="460" y="460" as="sourcePoint" />
            <mxPoint x="150" y="210" as="targetPoint" />
          </mxGeometry>
        </mxCell>
        <mxCell id="3XvH-DJk1GU3qEWTqNvq-41" value="192.168.255.2/30&amp;nbsp; 192.168.254.2/30 192.168.253.2/30" style="rounded=0;whiteSpace=wrap;html=1;" parent="1" vertex="1">
          <mxGeometry x="90" y="150" width="150" height="60" as="geometry" />
        </mxCell>
        <mxCell id="3XvH-DJk1GU3qEWTqNvq-43" value="&lt;br&gt;192.168.253.1/30" style="rounded=0;whiteSpace=wrap;html=1;" parent="1" vertex="1">
          <mxGeometry x="120" y="400" width="110" height="40" as="geometry" />
        </mxCell>
        <mxCell id="3XvH-DJk1GU3qEWTqNvq-44" value="" style="endArrow=classic;html=1;entryX=0;entryY=1;entryDx=0;entryDy=0;" parent="1" target="3XvH-DJk1GU3qEWTqNvq-43" edge="1">
          <mxGeometry width="50" height="50" relative="1" as="geometry">
            <mxPoint x="80" y="460" as="sourcePoint" />
            <mxPoint x="130" y="410" as="targetPoint" />
          </mxGeometry>
        </mxCell>
        <mxCell id="3XvH-DJk1GU3qEWTqNvq-45" value="&lt;br&gt;192.168.254.1/30" style="rounded=0;whiteSpace=wrap;html=1;" parent="1" vertex="1">
          <mxGeometry x="550" y="400" width="110" height="40" as="geometry" />
        </mxCell>
        <mxCell id="3XvH-DJk1GU3qEWTqNvq-46" value="" style="endArrow=classic;html=1;entryX=1;entryY=1;entryDx=0;entryDy=0;" parent="1" target="3XvH-DJk1GU3qEWTqNvq-45" edge="1">
          <mxGeometry width="50" height="50" relative="1" as="geometry">
            <mxPoint x="720" y="450" as="sourcePoint" />
            <mxPoint x="770" y="400" as="targetPoint" />
          </mxGeometry>
        </mxCell>
        <mxCell id="26FihGYNSt4fUAUZmIe_-1" value="" style="endArrow=none;html=1;" edge="1" parent="1">
          <mxGeometry width="50" height="50" relative="1" as="geometry">
            <mxPoint x="320" y="500" as="sourcePoint" />
            <mxPoint x="320" y="390" as="targetPoint" />
          </mxGeometry>
        </mxCell>
        <mxCell id="26FihGYNSt4fUAUZmIe_-2" value="" style="endArrow=none;html=1;entryX=0;entryY=0.5;entryDx=0;entryDy=0;" edge="1" parent="1" target="3XvH-DJk1GU3qEWTqNvq-11">
          <mxGeometry width="50" height="50" relative="1" as="geometry">
            <mxPoint x="320" y="500" as="sourcePoint" />
            <mxPoint x="390" y="500" as="targetPoint" />
          </mxGeometry>
        </mxCell>
        <mxCell id="26FihGYNSt4fUAUZmIe_-4" value="" style="endArrow=none;html=1;" edge="1" parent="1">
          <mxGeometry width="50" height="50" relative="1" as="geometry">
            <mxPoint x="720" y="390" as="sourcePoint" />
            <mxPoint x="530" y="390" as="targetPoint" />
          </mxGeometry>
        </mxCell>
        <mxCell id="26FihGYNSt4fUAUZmIe_-5" value="" style="endArrow=none;html=1;" edge="1" parent="1">
          <mxGeometry width="50" height="50" relative="1" as="geometry">
            <mxPoint x="530" y="500" as="sourcePoint" />
            <mxPoint x="530" y="390" as="targetPoint" />
          </mxGeometry>
        </mxCell>
        <mxCell id="26FihGYNSt4fUAUZmIe_-7" value="" style="endArrow=none;html=1;" edge="1" parent="1">
          <mxGeometry width="50" height="50" relative="1" as="geometry">
            <mxPoint x="505" y="495" as="sourcePoint" />
            <mxPoint x="530" y="495" as="targetPoint" />
          </mxGeometry>
        </mxCell>
      </root>
    </mxGraphModel>
  </diagram>
</mxfile>
